<?xml version="1.0" encoding="utf-8"?>
<!-- Generator: Adobe Illustrator 17.0.0, SVG Export Plug-In . SVG Version: 6.00 Build 0)  -->
<!DOCTYPE svg PUBLIC "-//W3C//DTD SVG 1.1//EN" "http://www.w3.org/Graphics/SVG/1.1/DTD/svg11.dtd">
<svg version="1.1" id="Layer_1" xmlns="http://www.w3.org/2000/svg" xmlns:xlink="http://www.w3.org/1999/xlink" x="0px" y="0px"
	 width="612px" height="792px" viewBox="0 0 612 792" enable-background="new 0 0 612 792" xml:space="preserve">
<g>
	<path fill="#333031" d="M413.253,360.657h-28.764V337.86c0-4.131-3.366-7.65-7.65-7.65h-17.748V214.542c0-0.306,0-0.459,0-0.765
		c0-0.153,0-0.459-0.153-0.612v-0.153c-0.153-0.459-0.306-1.071-0.459-1.53l-20.196-48.501c-1.224-2.754-3.978-4.59-7.038-4.59
		s-5.814,1.836-7.038,4.59l-20.196,48.501c-0.153,0.459-0.306,0.918-0.459,1.53v0.153c0,0.153,0,0.459-0.153,0.612
		c0,0.306,0,0.459,0,0.765V330.21h-15.147V178.128c0-10.863-8.874-19.737-19.737-19.737H252.45
		c-10.863,0-19.737,8.874-19.737,19.737V330.21h-15.147V214.542c0-0.306,0-0.459,0-0.765c0-0.153,0-0.459-0.153-0.612v-0.153
		c-0.153-0.459-0.306-1.071-0.459-1.53l-20.196-48.501c-1.224-2.754-3.978-4.59-7.038-4.59c-3.06,0-5.814,1.836-7.038,4.59
		l-20.196,48.501c-0.153,0.459-0.306,0.918-0.459,1.53v0.153c0,0.153,0,0.459-0.153,0.612c0,0.306,0,0.459,0,0.765V330.21h-17.595
		c-4.131,0-7.65,3.366-7.65,7.65v288.252c0,4.131,3.366,7.65,7.65,7.65h232.56c4.131,0,7.65-3.366,7.65-7.65v-53.091h28.764
		c34.272,0,62.118-27.846,62.118-62.118v-87.975C475.371,388.503,447.525,360.657,413.253,360.657L413.253,360.657z
		 M331.245,185.625l8.874,21.267h-17.748L331.245,185.625z M318.699,222.039h25.245V330.21h-25.245V222.039z M247.86,206.892h25.245
		v15.147H247.86V206.892z M252.45,173.538h16.218c2.448,0,4.59,2.142,4.59,4.59v13.617H247.86v-13.617
		C247.86,175.68,250.002,173.538,252.45,173.538L252.45,173.538z M247.86,237.186h25.245v93.024H247.86V237.186z M189.72,185.625
		l8.874,21.267h-17.748L189.72,185.625z M177.021,222.039h25.245V330.21h-25.245V222.039z M460.224,510.75
		c0,25.857-21.114,46.971-46.971,46.971h-36.414c-4.131,0-7.65,3.366-7.65,7.65v53.091H151.776V345.51h217.413v22.797
		c0,4.131,3.366,7.65,7.65,7.65h36.414c25.857,0,46.971,21.114,46.971,46.971L460.224,510.75L460.224,510.75z"/>
	<path fill="#333031" d="M184.671,370.755c-4.131,0-7.65,3.366-7.65,7.65v30.294c0,4.131,3.366,7.65,7.65,7.65
		c4.131,0,7.65-3.366,7.65-7.65v-30.294C192.168,374.121,188.802,370.755,184.671,370.755L184.671,370.755z"/>
	<path fill="#333031" d="M184.671,431.343c-4.131,0-7.65,3.366-7.65,7.65v146.574c0,4.131,3.366,7.65,7.65,7.65
		c4.131,0,7.65-3.366,7.65-7.65V438.993C192.168,434.862,188.802,431.343,184.671,431.343L184.671,431.343z"/>
	<path fill="#333031" d="M413.253,401.049h-28.764v-2.601c0-4.131-3.366-7.65-7.65-7.65c-4.131,0-7.65,3.366-7.65,7.65v136.476
		c0,4.131,3.366,7.65,7.65,7.65c4.131,0,7.65-3.366,7.65-7.65v-2.601h28.764c11.934,0,21.726-9.792,21.726-21.726v-87.975
		C434.979,410.841,425.187,401.049,413.253,401.049L413.253,401.049z M419.832,510.75c0,3.672-2.907,6.579-6.579,6.579h-28.764
		V416.196h28.764c3.672,0,6.579,2.907,6.579,6.579V510.75z"/>
</g>
</svg>
