<?xml version="1.0" encoding="utf-8"?>
<!-- Svg Vector Icons : http://www.onlinewebfonts.com/icon -->
<!DOCTYPE svg PUBLIC "-//W3C//DTD SVG 1.1//EN" "http://www.w3.org/Graphics/SVG/1.1/DTD/svg11.dtd">
<svg version="1.1" xmlns="http://www.w3.org/2000/svg" xmlns:xlink="http://www.w3.org/1999/xlink" x="0px" y="0px" viewBox="0 0 1000 1000" enable-background="new 0 0 1000 1000" xml:space="preserve">
<metadata> Svg Vector Icons : http://www.onlinewebfonts.com/icon </metadata>
<g><g transform="translate(0.000000,511.000000) scale(0.100000,-0.100000)"><path d="M401.2,4575.6c-122.8-61.4-211-151.5-268.5-280.1c-30.7-69-32.6-303.1-32.6-3803.7c0-3623.4,1.9-3732.7,36.4-3824.8c48-126.6,161.1-245.5,285.8-301.1l99.7-46l3065.2-5.8l3065.2-3.8l-15.4,42.2c-30.7,86.3-17.2,291.6,24.9,360.6l38.4,67.1l-53.7,44.1c-28.8,24.9-67.1,69.1-86.3,101.7l-32.6,55.6h-2883h-2883v2848.5v2848.5l3918.8-3.8l3916.9-5.8l9.6-1860.6l9.6-1858.7l74.8-17.2c72.9-17.3,245.5-163,264.7-222.5c5.7-23,19.2-23,72.9-5.8c34.5,13.4,101.7,23,147.7,23h82.5l-3.8,2758.3l-5.8,2756.4l-59.5,105.5c-65.2,117-201.4,232.1-314.6,266.6c-51.8,15.4-1191.2,21.1-4214.2,21.1H518.2L401.2,4575.6z M6581.5,3898.5c107.4-44.1,126.6-92.1,126.6-301.2c0-155.4-5.7-191.8-38.4-234c-55.6-69.1-153.5-95.9-310.7-86.3c-118.9,9.6-141.9,17.3-195.7,71c-57.5,59.5-59.5,63.3-59.5,239.8c0,201.4,21.1,262.8,113.2,306.9C6291.8,3933,6497.1,3934.9,6581.5,3898.5z M7592.3,3856.3c51.8-51.8,59.5-74.8,69.1-201.4c17.2-262.8-53.7-364.4-270.5-377.9c-145.8-9.6-245.5,19.2-299.2,86.3c-32.6,42.2-38.4,78.6-38.4,237.8c0,172.6,3.8,191.8,47.9,245.5c59.5,69.1,90.2,76.7,282,72.9C7521.4,3915.7,7536.7,3911.9,7592.3,3856.3z M8482.4,3898.5c92.1-38.4,124.7-115.1,124.7-285.8c0-251.3-51.8-318.4-257-333.8c-272.4-23-356.8,53.7-356.8,316.5c0,186.1,30.7,262.8,120.8,301.2C8194.6,3933,8399.9,3933,8482.4,3898.5z"/><path d="M5047,1970.7c-44.1-19.2-95.9-61.4-117-90.2c-55.6-80.6-1022.4-3094-1022.4-3186.1c0-257,368.3-372.1,516-161.1c49.9,71,1024.3,3103.6,1024.3,3189.9c0,99.7-59.5,189.9-159.2,241.7C5187,2016.8,5148.6,2016.8,5047,1970.7z"/><path d="M3092.3,950.3c-274.3-126.6-631.1-291.6-792.2-366.4c-226.3-105.5-306.9-151.5-343.4-201.4c-95.9-126.6-71-322.2,51.8-412.4c26.9-19.2,391.3-193.7,811.4-389.4C3654.4-806.8,3685-816.4,3811.6-730c74.8,49.9,134.3,153.4,134.3,232.1c0,30.7-19.2,94-40.3,140c-38.4,80.6-53.7,90.2-331.8,224.4c-159.2,76.7-381.7,180.3-494.9,232.1c-115.1,51.8-207.2,97.8-207.2,105.5c1.9,5.7,197.6,99.7,437.3,209.1c239.8,109.3,464.2,216.8,498.7,237.9c71,42.2,138.1,157.3,138.1,237.9c0,88.2-78.6,218.7-153.5,259C3671.6,1211.1,3621.7,1197.7,3092.3,950.3z"/><path d="M5585.9,1161.3c-193.7-113.2-232.1-337.6-80.6-471.9c34.5-28.8,266.6-149.6,517.9-264.7c249.4-117,454.6-216.7,454.6-222.5c0-5.8-211-107.4-468-226.3C5731.7-152.7,5520.7-262,5492-292.7c-174.6-182.2-44.1-481.4,209.1-481.4c49.9,0,283.9,99.7,840.2,356.8c423.9,197.6,792.2,376,815.2,399c142,126.6,130.4,362.5-21.1,462.3c-24.9,15.3-381.7,186.1-792.2,377.9C5781.6,1176.6,5676.1,1213.1,5585.9,1161.3z"/><path d="M8148.6-1420.6c-34.5-28.8-40.3-59.5-44.1-203.3l-5.7-168.8l-95.9-34.6c-51.8-19.2-109.3-40.3-126.6-47.9c-23-9.6-57.6,19.2-132.4,107.4c-128.5,155.4-155.4,168.8-235.9,111.3c-147.7-109.3-282-237.9-282-274.3c0-19.2,42.2-86.3,92.1-145.8c51.8-59.5,99.7-117,105.5-130.4c19.2-30.7-118.9-255.1-157.3-255.1c-17.2,1.9-86.3,11.5-155.4,24.9c-143.9,28.8-184.1,23-201.4-21.1c-21.1-55.6-67.1-316.5-67.1-383.6c0-72.9,19.2-84.4,226.3-118.9c117-19.2,140-28.8,145.8-63.3c3.8-23,17.3-84.4,26.8-138.1c15.3-71,13.4-99.8-1.9-109.4c-13.4-7.7-78.7-46-147.7-86.3c-163-95.9-166.9-122.8-38.4-339.5c53.7-92.1,111.3-172.6,128.5-178.4c30.7-11.5,86.3,13.4,245.5,105.5l95.9,57.5l105.5-94l103.6-94l-55.6-163c-44.1-124.7-51.8-170.7-36.4-195.7c11.5-17.2,107.4-63.3,214.8-101.7c151.5-51.8,201.4-63.3,228.3-46c19.2,11.5,59.5,92.1,90.2,178.4l55.6,157.3l142-5.8l143.8-5.7l59.5-163c49.9-132.4,69.1-165,103.6-168.8c44.1-5.8,358.7,99.7,404.7,136.2c34.5,26.9,28.8,84.4-26.8,239.8l-51.8,138.1l74.8,67.1c136.2,118.9,140,118.9,291.6,30.7c74.8-44.1,147.7-78.6,163-78.6c38.4,0,72.9,44.1,178.4,226.3c107.4,189.9,107.4,189.9-74.8,301.2c-69.1,42.2-130.4,82.5-138.1,88.2c-5.8,7.7,0,72.9,11.5,147.7l23,136.2l136.2,21.1c255.1,40.3,253.2,40.3,205.2,301.2c-19.2,105.5-40.3,201.4-49.9,216.7c-15.3,24.9-140,19.2-318.4-11.5c-69.1-11.5-69.1-11.5-136.2,109.3l-67.1,122.8l101.7,124.7c57.5,69,103.6,142,103.6,166.9c0,30.7-46.1,82.5-157.3,178.4c-88.2,72.9-172.6,134.3-191.8,134.3c-23,0-235.9-218.7-257-264.7c0-1.9-63.3,19.2-138.1,46l-138.1,51.8v178.4c0,218.7,0,218.7-255.1,218.7C8225.3-1388,8181.2-1395.7,8148.6-1420.6z M8559.1-2479.4c170.7-76.7,276.2-241.7,278.1-429.7c0-130.4-30.7-211-115.1-308.8c-214.8-243.6-594.6-205.2-761.5,78.7c-71,120.8-74.8,316.5-9.6,441.2c47.9,92.1,163,195.6,255.1,228.2C8304-2433.4,8470.9-2439.1,8559.1-2479.4z"/></g></g>
</svg>